<svg width="141" height="44" viewBox="0 0 141 44" fill="none" xmlns="http://www.w3.org/2000/svg">
<path d="M15.2159 0.777344C6.82747 0.777344 0 7.60481 0 15.9964V39.3105C0 39.533 0.180604 39.7136 0.403134 39.7136H30.0318C30.2544 39.7136 30.435 39.533 30.435 39.3105V15.9964C30.435 7.60481 23.6075 0.780569 15.2191 0.780569L15.2159 0.777344ZM15.2159 1.58039C23.1624 1.58039 29.6287 8.04665 29.6287 15.9932V36.853C29.1224 35.7661 28.1258 34.9534 26.8874 34.7115L23.8075 34.0729C23.7817 34.5825 23.7978 35.1082 23.872 35.65C23.8945 35.808 23.9139 35.9596 23.9397 36.108L25.7264 35.3339C25.9328 35.2436 26.1714 35.3404 26.2585 35.5436C26.3488 35.75 26.2521 35.9886 26.0489 36.0757L24.0945 36.9239C24.2557 37.6818 24.4525 38.33 24.6653 38.9073H23.8075C23.5946 38.2881 23.3979 37.5883 23.2398 36.7788C23.2398 36.7691 23.2334 36.7562 23.2334 36.7465C23.1721 36.4337 23.1173 36.1047 23.0721 35.7597C22.6948 33.0022 23.6043 30.7705 24.4815 28.6097C24.8943 27.597 25.2845 26.6424 25.5329 25.6555C26.2037 22.9755 26.6197 14.7129 23.6075 11.1072C20.5405 7.43711 16.7607 5.72782 13.4872 6.52764C12.1101 6.86305 10.9394 7.41131 9.97191 8.17565C9.00439 8.93999 8.23037 9.92686 7.64341 11.1427C5.89865 14.758 4.10874 18.9796 4.07004 22.8884C4.03456 26.3618 5.02788 28.9064 7.97882 32.8571C8.20457 32.7636 8.41098 32.6571 8.60448 32.541C8.71413 32.3379 8.90119 32.1153 9.15597 31.8218C9.46235 31.4671 9.83323 31.0285 10.1815 30.4899C10.4428 29.6482 10.4944 28.6806 10.5427 27.7454C10.5524 27.6196 10.5556 27.4938 10.5653 27.368C9.88483 26.6682 9.31077 25.9974 8.96569 25.533C7.46926 23.5237 6.82747 18.1056 8.21102 14.6484C8.89474 12.9391 10.1235 11.791 11.765 11.3298C13.9871 10.7073 16.4188 11.4878 17.7346 12.4747C20.2373 14.3517 19.9148 17.5412 19.5052 21.5758L19.4826 21.7887C19.2891 23.714 19.6149 25.3975 20.3373 26.6005C20.3437 26.6101 20.347 26.6134 20.3502 26.623C20.7888 27.3422 21.3693 27.8873 22.0595 28.2033C21.2177 26.3457 20.9371 23.1335 22.6561 21.4565C22.8174 21.2985 23.0721 21.3049 23.2302 21.4662C23.3882 21.6274 23.385 21.8822 23.2237 22.0402C21.5596 23.6624 22.2143 27.3971 23.2495 28.6194C23.3592 28.7451 23.3753 28.929 23.2947 29.0773C23.214 29.2257 23.0496 29.3063 22.8819 29.2837C21.666 29.1063 20.6566 28.4517 19.9245 27.4487C17.5766 29.632 16.2447 30.4899 15.232 30.4899C14.2193 30.4899 12.6616 29.3676 11.3361 28.1259C11.2942 28.9386 11.2265 29.7643 11.0136 30.5383C11.0136 30.5673 11.0233 30.5963 11.0136 30.6253L9.93321 38.9138H9.11404L10.0074 32.0766C9.92354 32.1766 9.84613 32.2701 9.77196 32.354C9.57845 32.5733 9.34302 32.8474 9.30432 32.9506L8.28197 38.9105H6.81779C5.71805 37.8011 4.38609 36.366 3.26054 34.8792C2.12532 35.2017 1.25455 35.879 0.806267 36.7465V15.9964C0.803042 8.04987 7.2693 1.58361 15.2159 1.58361V1.58039ZM14.9482 38.9073H14.1322C14.3999 36.1531 15.2546 33.3344 16.6736 30.5963C16.7768 30.3996 17.0187 30.319 17.2219 30.4222C17.4186 30.5254 17.4992 30.7705 17.396 30.9704C16.0415 33.5924 15.2191 36.2821 14.9514 38.9073H14.9482ZM8.70446 27.9227V27.5454C8.70446 27.3197 8.88506 27.139 9.11082 27.139C9.33657 27.139 9.51718 27.3197 9.51718 27.5454V28.3291C9.51718 28.5549 9.33657 28.7355 9.11082 28.7355H7.28865C7.0629 28.7355 6.8823 28.5549 6.8823 28.3291V26.694C6.8823 26.6166 6.90487 26.5424 6.94357 26.4779L7.64019 25.3717C7.75951 25.1782 8.01107 25.1266 8.20135 25.2459C8.39163 25.3653 8.44645 25.6168 8.32713 25.8071L7.69179 26.8133V27.926H8.70123L8.70446 27.9227Z" fill="#F5E0B3"/>
<path d="M8.37227 33.5698C7.92721 33.7633 7.43378 33.9278 6.87907 34.0439C6.17278 34.189 5.61807 34.3245 5.0827 34.4567C4.76665 34.5309 4.45704 34.6051 4.13131 34.6825C5.22783 36.0886 6.49528 37.4431 7.53376 38.4784L8.3755 33.573L8.37227 33.5698Z" fill="#F5E0B3"/>
<path d="M11.3006 26.9649C12.7068 28.371 14.3806 29.6772 15.2288 29.6772C16.1995 29.6772 17.9765 28.1549 19.4826 26.7456C18.7828 25.4233 18.4732 23.6753 18.6731 21.7048L18.6925 21.5307C18.6022 21.5371 18.5119 21.5436 18.4248 21.5436C17.812 21.5436 17.2154 21.4146 16.6833 21.163C16.4833 21.0662 16.3962 20.8244 16.4898 20.6212C16.5865 20.418 16.8284 20.3309 17.0316 20.4277C17.683 20.7373 18.328 20.7566 18.7731 20.7115C18.8344 20.0665 18.8924 19.4569 18.9279 18.8764C17.6379 19.0699 16.78 19.2796 16.7671 19.2828C16.7349 19.2925 16.7026 19.2957 16.6704 19.2957C16.4898 19.2957 16.3221 19.1699 16.2769 18.9829C16.2221 18.7668 16.3543 18.5475 16.5704 18.4926C16.6123 18.483 17.5444 18.254 18.9634 18.0476C19.0214 15.8674 18.6925 14.2065 17.2412 13.1197C16.364 12.465 14.9353 11.9103 13.4485 11.9103C12.9583 11.9103 12.4649 11.9683 11.9779 12.107C10.5718 12.5037 9.55264 13.4551 8.95923 14.9418C7.69177 18.1121 8.26906 23.2303 9.61392 25.0428C10.0267 25.5975 10.5943 26.2457 11.2168 26.8746C11.249 26.8972 11.2748 26.9262 11.3006 26.9584V26.9649ZM15.0804 17.1155C15.4061 17.1155 15.6674 17.3768 15.6674 17.6993C15.6674 18.0218 15.4061 18.283 15.0804 18.283C14.7547 18.283 14.4967 18.0218 14.4967 17.6993C14.4967 17.3768 14.7579 17.1155 15.0804 17.1155ZM15.4029 26.0167C16.0705 26.0167 16.6381 25.4717 16.6413 25.4685C16.8026 25.3104 17.0574 25.3137 17.2154 25.4749C17.3734 25.6362 17.3702 25.8877 17.2154 26.0458C17.1832 26.078 16.4124 26.8294 15.4061 26.8294C14.2387 26.8294 13.3679 26.0974 13.3292 26.0651C13.1583 25.92 13.1389 25.662 13.284 25.491C13.4292 25.3201 13.6872 25.3008 13.8581 25.4459C13.871 25.4588 14.5515 26.0167 15.4061 26.0167H15.4029ZM8.63027 18.7603C8.55287 18.5507 8.6593 18.3153 8.86892 18.2379C8.91085 18.225 9.83645 17.8863 10.7524 18.0121C12.323 18.2282 13.3711 18.4862 13.4195 18.4959C13.6356 18.5475 13.7678 18.77 13.7162 18.9861C13.6711 19.1699 13.5033 19.2957 13.3195 19.2957C13.2873 19.2957 13.255 19.2957 13.2228 19.286C13.2131 19.286 12.1682 19.028 10.6395 18.8184C9.9332 18.7216 9.15596 18.9958 9.14951 18.999C8.93988 19.0764 8.70445 18.97 8.62704 18.7603H8.63027ZM9.61392 20.6212C9.71067 20.4212 9.95255 20.3342 10.1557 20.4309C10.8523 20.7631 11.9843 20.8921 12.9583 20.4309C13.1615 20.3342 13.4034 20.4212 13.5001 20.6244C13.5969 20.8276 13.5098 21.0695 13.3066 21.1662C12.7293 21.4404 12.1359 21.5468 11.578 21.5468C10.8846 21.5468 10.2557 21.3791 9.80419 21.1662C9.60424 21.0695 9.51716 20.8244 9.61392 20.6212Z" fill="#F5E0B3"/>
<path d="M33.7633 27.3067L35.4629 25.4684C37.5431 28.8676 41.5325 31.2606 44.9349 31.2606C47.6053 31.2606 49.6887 30.0802 49.6887 27.4776C49.6887 22.2046 34.9791 18.7022 34.9791 12.423C34.9791 8.57226 38.9685 6.5953 42.887 6.5953C45.9734 6.55982 49.3404 7.32416 51.2141 8.95282V14.2613L50.6594 14.2968C50.2434 9.40433 47.2957 7.25321 42.887 7.25321C40.1457 7.25321 37.2657 8.50131 37.2657 10.9298C37.2657 16.3769 51.8366 19.7052 51.7301 25.4652C51.6624 29.9061 47.3247 32.1959 42.7096 32.1959C39.033 32.1959 35.8402 30.4253 33.76 27.3035L33.7633 27.3067Z" fill="#F5E0B3"/>
<path d="M53.8458 22.5207C53.8458 17.6282 57.1063 12.4617 63.4565 12.4617C69.8066 12.4617 72.893 17.596 72.893 22.4529C72.893 27.3099 69.7711 32.1668 63.4565 32.1668C57.1418 32.1668 53.8458 27.3808 53.8458 22.5239V22.5207ZM69.9066 22.4175C69.9066 17.7347 67.72 12.8068 63.3855 12.8068C59.051 12.8068 56.829 17.7314 56.829 22.4175C56.829 27.1035 59.0155 31.7831 63.3855 31.7831C67.7555 31.7831 69.9066 27.1003 69.9066 22.4175Z" fill="#F5E0B3"/>
<path d="M86.7318 31.6088C87.738 29.4577 87.6348 28.6256 87.6348 26.1972V17.2121C87.6348 14.9223 87.0092 13.9516 86.0739 13.9516C84.0614 13.9516 79.585 18.7053 78.2692 24.8104V26.1972C78.2692 28.6256 78.2692 29.4577 79.1722 31.6088H74.5926C75.5989 29.4577 75.4957 28.6256 75.4957 26.1972V18.7376C75.4957 17.941 75.6698 16.135 74.1089 14.2967C75.5666 13.9484 77.0566 13.4291 78.2724 12.7712V22.9689C80.3526 16.8283 84.413 12.4584 87.2575 12.4584C88.9216 12.4584 90.4148 13.9838 90.4148 16.551V26.1939C90.4148 28.6224 90.4148 29.4545 91.3178 31.6056H86.7382L86.7318 31.6088Z" fill="#F5E0B3"/>
<path d="M92.8723 22.3465C92.8723 17.2799 96.0651 12.4584 101.509 12.4261C105.15 12.4261 108.169 14.2644 107.891 17.3186C107.788 18.6022 106.747 19.6761 105.534 19.6761C104.841 19.6761 104.076 19.2955 103.418 18.357C104.25 17.7314 104.631 16.6929 104.631 15.7222C104.631 14.3354 103.867 13.0518 101.474 13.0518C97.4842 13.0518 95.6459 16.9025 95.6459 20.9597C95.6459 25.5747 97.4164 30.464 101.648 30.464C104.841 30.464 107.269 28.0355 107.856 25.12L108.062 25.3619C107.543 29.5609 104.108 32.1281 100.812 32.1281C96.5811 32.1281 92.8691 28.6257 92.8691 22.3465H92.8723Z" fill="#F5E0B3"/>
<path d="M141 37.227C141 39.8296 138.017 43.0547 132.986 43.0547C125.803 43.0547 121.711 38.3364 121.711 29.5964V16.8639C121.711 14.645 121.121 13.7065 120.253 13.7065C118.173 13.7065 114.39 19.0827 112.968 24.5299V26.194C112.968 28.6225 112.968 29.4545 113.871 31.6057H109.291C110.297 29.4545 110.194 28.6225 110.194 26.194V5.96638C110.194 5.16978 110.368 3.36375 108.807 1.52546C110.265 1.18037 111.758 0.657914 112.971 0V23.214C114.255 18.9827 117.792 12.4584 121.608 12.4584C123.343 12.4584 124.488 13.9516 124.488 16.206V29.9093C124.488 40.4552 129.412 42.6064 132.708 42.6064C136.627 42.6064 138.572 38.0268 138.572 34.2792C140.236 34.7662 141 35.9111 141 37.227Z" fill="#F5E0B3"/>
<path d="M128.251 31.6766C129.258 29.5255 129.154 28.6934 129.154 26.2649V18.7376C129.154 17.941 129.328 16.135 127.768 14.2967C129.225 13.9484 130.715 13.4292 131.931 12.7713V26.2649C131.931 28.6934 131.931 29.5255 132.834 31.6766H128.255H128.251ZM128.287 8.84957C128.322 7.80788 129.258 6.90808 130.299 6.90808C131.409 6.90808 132.241 7.8111 132.241 8.84957C132.205 9.92674 131.305 10.8265 130.264 10.8265C129.222 10.8265 128.287 9.92352 128.287 8.84957Z" fill="#F5E0B3"/>
<path d="M37.7914 38.1103C37.7914 38.3264 37.743 38.5167 37.6495 38.6844C37.5559 38.8521 37.4237 38.9811 37.256 39.0746C37.0883 39.1682 36.8948 39.2133 36.6755 39.2133C36.4562 39.2133 36.2627 39.1682 36.095 39.0746C35.9273 38.9811 35.7983 38.8521 35.7015 38.6844C35.6048 38.5167 35.5596 38.3264 35.5596 38.1103V34.9917H34.9307V38.1232C34.9307 38.4457 35.0049 38.7296 35.15 38.9811C35.2952 39.2327 35.5016 39.4294 35.766 39.5745C36.0305 39.7196 36.3336 39.7906 36.6755 39.7906C37.0174 39.7906 37.327 39.7196 37.5882 39.5745C37.8494 39.4294 38.0526 39.2327 38.201 38.9811C38.3461 38.7296 38.4203 38.4425 38.4203 38.1232V34.9917H37.7914V38.1103Z" fill="#F5E0B3"/>
<path d="M41.4518 36.3852C41.2583 36.2755 41.039 36.2207 40.7939 36.2207C40.5488 36.2207 40.3198 36.282 40.1328 36.4013C40.0038 36.4852 39.9006 36.5916 39.8199 36.7206V36.2981H39.2427V39.7167H39.8328V37.6946C39.8328 37.5075 39.8683 37.3495 39.9393 37.2173C40.0102 37.085 40.1102 36.9818 40.2327 36.9076C40.3585 36.8335 40.5004 36.798 40.6617 36.798C40.8229 36.798 40.9648 36.8335 41.0906 36.9076C41.2164 36.9818 41.3099 37.085 41.3776 37.214C41.4454 37.3463 41.4776 37.5043 41.4776 37.6946V39.7167H42.0743V37.5043C42.0743 37.2592 42.0194 37.0399 41.9066 36.8464C41.7937 36.6529 41.6421 36.5013 41.4486 36.3884L41.4518 36.3852Z" fill="#F5E0B3"/>
<path d="M43.3837 34.9883H42.7935V35.7494H43.3837V34.9883Z" fill="#F5E0B3"/>
<path d="M43.3836 36.2949H42.7935V39.7135H43.3836V36.2949Z" fill="#F5E0B3"/>
<path d="M45.6799 39.2137C45.5412 39.2137 45.4283 39.1879 45.3445 39.1395C45.2606 39.0911 45.1994 39.0234 45.1639 38.9395C45.1284 38.8557 45.1091 38.7557 45.1091 38.6428V36.8594H45.8766V36.295H45.1091V35.5081H44.5189V35.7886C44.5189 35.9402 44.4737 36.0628 44.3866 36.1563C44.2963 36.2498 44.177 36.295 44.0254 36.295H43.8997V36.8594H44.5221V38.6589C44.5221 39.004 44.6124 39.2749 44.793 39.4652C44.9736 39.6555 45.2284 39.749 45.5638 39.749C45.6089 39.749 45.667 39.749 45.7347 39.7393C45.8024 39.7329 45.8637 39.7232 45.9185 39.7103V39.1911C45.8798 39.1943 45.8379 39.2008 45.796 39.204C45.7508 39.2072 45.7154 39.2104 45.6863 39.2104L45.6799 39.2137Z" fill="#F5E0B3"/>
<path d="M47.1441 36.2949H46.5539V39.7135H47.1441V36.2949Z" fill="#F5E0B3"/>
<path d="M47.144 34.9883H46.5538V35.7494H47.144V34.9883Z" fill="#F5E0B3"/>
<path d="M50.1402 36.3852C49.9467 36.2755 49.7273 36.2207 49.4822 36.2207C49.2371 36.2207 49.0082 36.282 48.8211 36.4013C48.6921 36.4852 48.5889 36.5916 48.5083 36.7206V36.2981H47.931V39.7167H48.5212V37.6946C48.5212 37.5075 48.5566 37.3495 48.6276 37.2173C48.6986 37.085 48.7985 36.9818 48.9211 36.9076C49.0469 36.8335 49.1888 36.798 49.35 36.798C49.5113 36.798 49.6532 36.8335 49.779 36.9076C49.9047 36.9818 49.9983 37.085 50.066 37.214C50.1337 37.3463 50.166 37.5043 50.166 37.6946V39.7167H50.7626V37.5043C50.7626 37.2592 50.7078 37.0399 50.5949 36.8464C50.482 36.6529 50.3304 36.5013 50.1369 36.3884L50.1402 36.3852Z" fill="#F5E0B3"/>
<path d="M54.1715 36.772C54.0522 36.6204 53.9103 36.4946 53.7361 36.3979C53.5168 36.2786 53.275 36.2173 53.0105 36.2173C52.688 36.2173 52.401 36.2915 52.1494 36.443C51.8978 36.5946 51.7011 36.7978 51.556 37.0558C51.4109 37.3138 51.3399 37.6041 51.3399 37.9233C51.3399 38.2426 51.4109 38.5297 51.556 38.7877C51.7011 39.0489 51.8979 39.2521 52.1526 39.4037C52.4074 39.5552 52.6944 39.6294 53.0137 39.6294C53.2814 39.6294 53.5233 39.5681 53.7458 39.4456C53.9071 39.3553 54.0425 39.2359 54.1489 39.0876V39.5649C54.1489 39.7713 54.1038 39.9487 54.0103 40.0938C53.9167 40.2389 53.791 40.3486 53.6329 40.4228C53.4749 40.4969 53.2975 40.5324 53.104 40.5324C52.8492 40.5324 52.6396 40.4776 52.4719 40.3647C52.3042 40.2518 52.1913 40.1164 52.1333 39.9551L51.5818 40.2099C51.6592 40.3873 51.7688 40.5421 51.914 40.6776C52.0591 40.8098 52.2365 40.9162 52.4397 40.9904C52.6428 41.0646 52.8686 41.1033 53.1072 41.1033C53.4233 41.1033 53.7071 41.0355 53.9554 40.9033C54.2038 40.7711 54.3973 40.5873 54.536 40.355C54.6746 40.1228 54.7456 39.8584 54.7456 39.5617V36.2882H54.1683V36.7655L54.1715 36.772ZM54.007 38.4974C53.9103 38.6683 53.7813 38.8038 53.6168 38.907C53.4523 39.0102 53.2717 39.0586 53.0685 39.0586C52.8654 39.0586 52.6686 39.007 52.5009 38.907C52.3332 38.807 52.2042 38.6683 52.1075 38.4974C52.0107 38.3265 51.9656 38.1362 51.9656 37.9233C51.9656 37.7105 52.014 37.5202 52.1075 37.3493C52.201 37.1784 52.3332 37.0429 52.5042 36.9397C52.6719 36.8397 52.8621 36.7881 53.0685 36.7881C53.275 36.7881 53.4556 36.8397 53.6168 36.9397C53.7781 37.0397 53.9103 37.1784 54.007 37.3525C54.1038 37.5267 54.1522 37.7169 54.1522 37.9233C54.1522 38.1297 54.1038 38.3265 54.007 38.4974Z" fill="#F5E0B3"/>
<path d="M57.8706 35.7241C58.1254 35.5693 58.4189 35.4887 58.7479 35.4887C59.0768 35.4887 59.3509 35.5693 59.5864 35.7338C59.8186 35.895 59.9895 36.1079 60.0992 36.3723L60.67 36.1111C60.5926 35.9047 60.4668 35.708 60.2862 35.5274C60.1056 35.3468 59.8863 35.1984 59.6251 35.0823C59.3638 34.9694 59.0736 34.9114 58.7479 34.9114C58.4221 34.9114 58.1061 34.9727 57.8223 35.092C57.5385 35.2113 57.2934 35.3822 57.0869 35.6015C56.8805 35.8208 56.7193 36.0789 56.6064 36.3756C56.4935 36.6723 56.4355 36.998 56.4355 37.3528C56.4355 37.7075 56.4935 38.0268 56.6064 38.3235C56.7193 38.6202 56.8838 38.8782 57.0902 39.0975C57.2966 39.3168 57.5449 39.4877 57.8255 39.6071C58.1061 39.7264 58.4157 39.7877 58.7479 39.7877C59.08 39.7877 59.3671 39.7296 59.6251 39.6167C59.8863 39.5039 60.1056 39.3555 60.2862 39.1717C60.4668 38.9911 60.5926 38.7944 60.67 38.588L60.0992 38.3267C59.9895 38.588 59.8186 38.8008 59.5864 38.9653C59.3542 39.1265 59.0736 39.2104 58.7479 39.2104C58.4221 39.2104 58.1254 39.133 57.8706 38.975C57.6159 38.8202 57.4159 38.6009 57.2708 38.3203C57.1256 38.0429 57.0547 37.7172 57.0547 37.3495C57.0547 36.9819 57.1256 36.6529 57.2708 36.3723C57.4159 36.0918 57.6126 35.8757 57.8706 35.7176V35.7241Z" fill="#F5E0B3"/>
<path d="M63.4889 38.3167C63.4889 38.5037 63.4535 38.6617 63.3857 38.7972C63.3148 38.9326 63.218 39.0358 63.0955 39.1068C62.9697 39.1777 62.8278 39.2132 62.6666 39.2132C62.5053 39.2132 62.3634 39.1777 62.2376 39.1068C62.1118 39.0358 62.0151 38.9359 61.9474 38.8101C61.8764 38.6843 61.8442 38.536 61.8442 38.365V36.2913H61.254V38.4295C61.254 38.6972 61.3088 38.9326 61.4152 39.1358C61.5217 39.3422 61.6765 39.5003 61.8732 39.6131C62.0699 39.726 62.2892 39.7841 62.5343 39.7841C62.7794 39.7841 63.0052 39.7228 63.1987 39.6035C63.3309 39.5228 63.4341 39.4164 63.5115 39.2874V39.7067H64.0888V36.2881H63.4922V38.3102L63.4889 38.3167Z" fill="#F5E0B3"/>
<path d="M65.4592 34.9114H64.869V39.7135H65.4592V34.9114Z" fill="#F5E0B3"/>
<path d="M67.7555 39.2137C67.6168 39.2137 67.5039 39.1879 67.4201 39.1395C67.3362 39.0911 67.275 39.0234 67.2395 38.9395C67.204 38.8557 67.1847 38.7557 67.1847 38.6428V36.8594H67.9522V36.295H67.1847V35.5081H66.5945V35.7886C66.5945 35.9402 66.5493 36.0628 66.4622 36.1563C66.3719 36.2498 66.2526 36.295 66.101 36.295H65.9753V36.8594H66.5977V38.6589C66.5977 39.004 66.688 39.2749 66.8686 39.4652C67.0492 39.6555 67.304 39.749 67.6394 39.749C67.6845 39.749 67.7426 39.749 67.8103 39.7393C67.878 39.7329 67.9393 39.7232 67.9941 39.7103V39.1911C67.9554 39.1943 67.9135 39.2008 67.8716 39.204C67.8264 39.2072 67.791 39.2104 67.7619 39.2104L67.7555 39.2137Z" fill="#F5E0B3"/>
<path d="M70.8 38.3167C70.8 38.5037 70.7645 38.6617 70.6968 38.7972C70.6258 38.9326 70.5291 39.0358 70.4065 39.1068C70.2807 39.1777 70.1388 39.2132 69.9776 39.2132C69.8163 39.2132 69.6744 39.1777 69.5486 39.1068C69.4229 39.0358 69.3261 38.9359 69.2584 38.8101C69.1874 38.6843 69.1552 38.536 69.1552 38.365V36.2913H68.565V38.4295C68.565 38.6972 68.6198 38.9326 68.7263 39.1358C68.8327 39.3422 68.9875 39.5003 69.1842 39.6131C69.3809 39.726 69.6002 39.7841 69.8454 39.7841C70.0905 39.7841 70.3162 39.7228 70.5097 39.6035C70.6419 39.5228 70.7451 39.4164 70.8226 39.2874V39.7067H71.3998V36.2881H70.8032V38.3102L70.8 38.3167Z" fill="#F5E0B3"/>
<path d="M73.0641 36.401C72.9383 36.4752 72.8351 36.5784 72.7609 36.7074V36.2946H72.1837V39.7131H72.7738V37.6781C72.7738 37.404 72.848 37.1911 72.9964 37.0396C73.1447 36.8912 73.3382 36.8138 73.5801 36.8138H73.8768V36.2559H73.6672C73.4318 36.2559 73.2286 36.3042 73.0641 36.3978V36.401Z" fill="#F5E0B3"/>
<path d="M76.9727 36.7238C76.8341 36.569 76.6696 36.4465 76.4728 36.3562C76.2761 36.2659 76.0504 36.2207 75.7988 36.2207C75.486 36.2207 75.2022 36.2981 74.9506 36.4529C74.6991 36.6077 74.4991 36.8173 74.354 37.085C74.2089 37.3527 74.1347 37.6559 74.1347 37.9977C74.1347 38.3396 74.2089 38.6427 74.3572 38.9136C74.5056 39.1845 74.7087 39.4006 74.9667 39.5587C75.2247 39.7167 75.5182 39.7941 75.8472 39.7941C76.0826 39.7941 76.2987 39.7554 76.4922 39.6812C76.6857 39.6038 76.8502 39.5038 76.9921 39.3748C77.134 39.2458 77.2372 39.1039 77.3049 38.9459L76.8115 38.6911C76.7147 38.8556 76.589 38.991 76.4309 39.0975C76.2729 39.2039 76.0826 39.2555 75.8536 39.2555C75.6472 39.2555 75.4537 39.2039 75.2796 39.1007C75.1054 38.9975 74.97 38.8524 74.8732 38.6621C74.8023 38.5202 74.7603 38.3589 74.7539 38.1848H77.3694C77.3791 38.1332 77.3855 38.0816 77.392 38.0235C77.3984 37.9655 77.4017 37.9139 77.4017 37.8687C77.4017 37.6559 77.3662 37.4527 77.292 37.2559C77.2178 37.0592 77.1114 36.8851 76.976 36.7303L76.9727 36.7238ZM75.2505 36.898C75.415 36.798 75.5956 36.7464 75.7956 36.7464C75.9955 36.7464 76.1729 36.798 76.3277 36.898C76.4825 36.9979 76.6019 37.1366 76.6825 37.3108C76.7341 37.4204 76.7567 37.543 76.7599 37.672H74.7668C74.7829 37.5494 74.8152 37.4366 74.8668 37.3334C74.9571 37.1463 75.0861 37.0012 75.2505 36.898Z" fill="#F5E0B3"/>
<path d="M79.6271 37.8105L79.0692 37.646C79.0014 37.6234 78.9305 37.5976 78.8595 37.5654C78.7886 37.5331 78.7273 37.488 78.6757 37.4267C78.6241 37.3654 78.5983 37.2848 78.5983 37.188C78.5983 37.0558 78.6499 36.9494 78.7499 36.8623C78.8498 36.7752 78.9885 36.7333 79.1627 36.7333C79.353 36.7333 79.5239 36.7849 79.6755 36.8881C79.827 36.9913 79.9432 37.1332 80.0173 37.3106L80.4979 37.0881C80.3979 36.8139 80.227 36.6011 79.9883 36.4463C79.7496 36.2947 79.4787 36.2173 79.1788 36.2173C78.9531 36.2173 78.7531 36.2592 78.5725 36.3431C78.3919 36.4269 78.25 36.5462 78.1468 36.6946C78.0436 36.8462 77.992 37.0203 77.992 37.2235C77.992 37.4428 78.0629 37.6363 78.2048 37.8008C78.3467 37.9653 78.5725 38.091 78.8789 38.1814L79.3917 38.3265C79.4594 38.3426 79.5336 38.3684 79.6142 38.4071C79.6948 38.4426 79.7625 38.491 79.8206 38.5522C79.8786 38.6135 79.9077 38.6941 79.9077 38.7973C79.9077 38.9425 79.8464 39.0586 79.7238 39.1456C79.6013 39.2359 79.4465 39.2779 79.2594 39.2779C79.053 39.2779 78.8628 39.2198 78.695 39.1005C78.5273 38.9812 78.3919 38.8199 78.2951 38.62L77.8243 38.8489C77.9307 39.136 78.1081 39.365 78.3629 39.5327C78.6176 39.7004 78.9144 39.7874 79.2562 39.7874C79.5013 39.7874 79.7174 39.7455 79.9044 39.6617C80.0915 39.5778 80.2366 39.4585 80.3431 39.3069C80.4495 39.1553 80.5011 38.9844 80.5011 38.7941C80.5011 38.5587 80.4237 38.3555 80.2689 38.1846C80.1141 38.0169 79.898 37.8911 79.6174 37.8105H79.6271Z" fill="#F5E0B3"/>
<path d="M84.6419 36.4495C84.3742 36.2947 84.0775 36.2173 83.7485 36.2173C83.4196 36.2173 83.1132 36.2947 82.8488 36.4527C82.5811 36.6075 82.3714 36.8204 82.2166 37.0881C82.0618 37.3557 81.9844 37.6589 81.9844 38.0007C81.9844 38.3426 82.0618 38.649 82.2199 38.9199C82.3747 39.1908 82.5875 39.4037 82.8552 39.5585C83.1229 39.7133 83.4196 39.7907 83.7485 39.7907C84.0775 39.7907 84.3613 39.7133 84.6258 39.5585C84.8902 39.4037 85.1031 39.194 85.2643 38.9231C85.4256 38.6554 85.5062 38.3458 85.5062 38.0007C85.5062 37.6557 85.4288 37.3461 85.274 37.0816C85.1192 36.8171 84.9096 36.6043 84.6419 36.4495ZM84.729 38.62C84.629 38.807 84.4935 38.9521 84.3226 39.0586C84.1517 39.165 83.9614 39.2166 83.7485 39.2166C83.5357 39.2166 83.339 39.165 83.168 39.0586C82.9971 38.9521 82.8616 38.807 82.7584 38.62C82.6552 38.4329 82.6069 38.2265 82.6069 37.9975C82.6069 37.7685 82.6585 37.5589 82.7584 37.3783C82.8584 37.1977 82.9971 37.0558 83.168 36.9461C83.339 36.8365 83.5325 36.7849 83.7485 36.7849C83.9646 36.7849 84.1517 36.8397 84.3226 36.9461C84.4935 37.0526 84.629 37.1977 84.729 37.3783C84.8289 37.5589 84.8773 37.7653 84.8773 37.9975C84.8773 38.2297 84.8289 38.4329 84.729 38.62Z" fill="#F5E0B3"/>
<path d="M88.3572 36.3852C88.1637 36.2755 87.9444 36.2207 87.6993 36.2207C87.4542 36.2207 87.2252 36.282 87.0382 36.4013C86.9092 36.4852 86.806 36.5916 86.7253 36.7206V36.2981H86.148V39.7167H86.7382V37.6946C86.7382 37.5075 86.7737 37.3495 86.8447 37.2173C86.9156 37.085 87.0156 36.9818 87.1381 36.9076C87.2639 36.8335 87.4058 36.798 87.5671 36.798C87.7283 36.798 87.8702 36.8335 87.996 36.9076C88.1218 36.9818 88.2153 37.085 88.283 37.214C88.3508 37.3463 88.383 37.5043 88.383 37.6946V39.7167H88.9797V37.5043C88.9797 37.2592 88.9248 37.0399 88.812 36.8464C88.6991 36.6529 88.5475 36.5013 88.354 36.3884L88.3572 36.3852Z" fill="#F5E0B3"/>
<path d="M91.9596 38.9685L90.9212 36.2949H90.2794L91.6403 39.7199L91.5371 39.9683C91.4436 40.1779 91.3469 40.3295 91.2437 40.4166C91.1405 40.5036 90.9889 40.5456 90.7889 40.5456C90.7212 40.5456 90.6535 40.5391 90.5825 40.5294C90.5116 40.5198 90.4535 40.5101 90.4084 40.5004V41.0261C90.4761 41.0551 90.547 41.0777 90.6244 41.0906C90.7018 41.1035 90.776 41.1099 90.8534 41.1099C91.0727 41.1099 91.263 41.0648 91.4243 40.9777C91.5855 40.8874 91.721 40.7681 91.8338 40.6197C91.9467 40.4682 92.037 40.3037 92.108 40.1231L93.6496 36.2981H92.9949L91.9596 38.9717V38.9685Z" fill="#F5E0B3"/>
<path d="M96.5003 36.4495C96.2326 36.2947 95.9359 36.2173 95.6069 36.2173C95.278 36.2173 94.9716 36.2947 94.7072 36.4527C94.4395 36.6075 94.2298 36.8204 94.075 37.0881C93.9202 37.3557 93.8428 37.6589 93.8428 38.0007C93.8428 38.3426 93.9202 38.649 94.0783 38.9199C94.2331 39.1908 94.4459 39.4037 94.7136 39.5585C94.9813 39.7133 95.278 39.7907 95.6069 39.7907C95.9359 39.7907 96.2197 39.7133 96.4842 39.5585C96.7486 39.4037 96.9615 39.194 97.1227 38.9231C97.284 38.6554 97.3646 38.3458 97.3646 38.0007C97.3646 37.6557 97.2872 37.3461 97.1324 37.0816C96.9776 36.8171 96.768 36.6043 96.5003 36.4495ZM96.5874 38.62C96.4874 38.807 96.3519 38.9521 96.181 39.0586C96.0101 39.165 95.8198 39.2166 95.6069 39.2166C95.3941 39.2166 95.1974 39.165 95.0264 39.0586C94.8555 38.9521 94.7201 38.807 94.6168 38.62C94.5136 38.4329 94.4653 38.2265 94.4653 37.9975C94.4653 37.7685 94.5169 37.5589 94.6168 37.3783C94.7168 37.1977 94.8555 37.0558 95.0264 36.9461C95.1974 36.8365 95.3909 36.7849 95.6069 36.7849C95.823 36.7849 96.0101 36.8397 96.181 36.9461C96.3519 37.0526 96.4874 37.1977 96.5874 37.3783C96.6873 37.5589 96.7357 37.7653 96.7357 37.9975C96.7357 38.2297 96.6873 38.4329 96.5874 38.62Z" fill="#F5E0B3"/>
<path d="M100.174 38.3167C100.174 38.5037 100.138 38.6617 100.07 38.7972C99.9994 38.9326 99.9026 39.0358 99.7801 39.1068C99.6543 39.1777 99.5124 39.2132 99.3511 39.2132C99.1899 39.2132 99.048 39.1777 98.9222 39.1068C98.7964 39.0358 98.6997 38.9359 98.6319 38.8101C98.561 38.6843 98.5287 38.536 98.5287 38.365V36.2913H97.9385V38.4295C97.9385 38.6972 97.9934 38.9326 98.0998 39.1358C98.2062 39.3422 98.361 39.5003 98.5578 39.6131C98.7545 39.726 98.9738 39.7841 99.2189 39.7841C99.464 39.7841 99.6897 39.7228 99.8833 39.6035C100.015 39.5228 100.119 39.4164 100.196 39.2874V39.7067H100.773V36.2881H100.177V38.3102L100.174 38.3167Z" fill="#F5E0B3"/>
<path d="M102.438 36.401C102.312 36.4752 102.209 36.5784 102.135 36.7074V36.2946H101.558V39.7131H102.148V37.6781C102.148 37.404 102.222 37.1911 102.37 37.0396C102.519 36.8912 102.712 36.8138 102.954 36.8138H103.251V36.2559H103.041C102.806 36.2559 102.603 36.3042 102.438 36.3978V36.401Z" fill="#F5E0B3"/>
<path d="M107.26 36.4527C107.005 36.2979 106.715 36.2173 106.395 36.2173C106.111 36.2173 105.86 36.2786 105.641 36.3979C105.46 36.4946 105.315 36.6236 105.196 36.7784V36.2947H104.618V40.9807H105.208V39.2327C105.321 39.3875 105.463 39.5101 105.637 39.6036C105.863 39.7262 106.115 39.7874 106.389 39.7874C106.715 39.7874 107.005 39.71 107.26 39.552C107.514 39.3972 107.718 39.1811 107.866 38.9102C108.014 38.6393 108.088 38.3362 108.088 38.004C108.088 37.6718 108.014 37.3557 107.866 37.0881C107.718 36.8204 107.518 36.6075 107.26 36.4495V36.4527ZM107.318 38.6232C107.221 38.807 107.089 38.9521 106.921 39.0586C106.753 39.165 106.56 39.2166 106.344 39.2166C106.128 39.2166 105.934 39.165 105.763 39.0586C105.592 38.9521 105.457 38.807 105.357 38.6232C105.257 38.4394 105.208 38.233 105.208 38.004C105.208 37.775 105.257 37.5621 105.357 37.3783C105.457 37.1945 105.592 37.0494 105.763 36.9429C105.934 36.8365 106.128 36.7849 106.344 36.7849C106.56 36.7849 106.753 36.8397 106.921 36.9461C107.089 37.0526 107.221 37.1977 107.318 37.3783C107.411 37.5589 107.46 37.7653 107.46 38.004C107.46 38.2426 107.411 38.4394 107.318 38.6232Z" fill="#F5E0B3"/>
<path d="M109.323 34.9114H108.733V39.7135H109.323V34.9114Z" fill="#F5E0B3"/>
<path d="M112.21 36.3691C112.01 36.2691 111.781 36.2207 111.52 36.2207C111.316 36.2207 111.123 36.2562 110.936 36.3271C110.749 36.3981 110.588 36.4981 110.449 36.6206C110.31 36.7464 110.207 36.8851 110.146 37.0431L110.659 37.3108C110.73 37.1463 110.842 37.0141 110.991 36.9141C111.142 36.8141 111.313 36.7657 111.507 36.7657C111.729 36.7657 111.913 36.8238 112.049 36.9399C112.184 37.056 112.255 37.2076 112.255 37.3946V37.5494L111.087 37.7429C110.833 37.7849 110.623 37.8558 110.455 37.959C110.288 38.059 110.165 38.1848 110.088 38.3299C110.01 38.475 109.972 38.6395 109.972 38.8201C109.972 39.0007 110.02 39.1781 110.117 39.3232C110.214 39.4683 110.349 39.5844 110.52 39.6651C110.691 39.7489 110.888 39.7876 111.113 39.7876C111.307 39.7876 111.487 39.7586 111.652 39.6973C111.816 39.6393 111.961 39.5586 112.084 39.4554C112.155 39.3974 112.213 39.3329 112.268 39.2619V39.7102H112.845V37.3882C112.845 37.156 112.79 36.9528 112.677 36.7754C112.565 36.6013 112.41 36.4626 112.213 36.3626L112.21 36.3691ZM112.12 38.7814C112.029 38.9362 111.903 39.062 111.745 39.1523C111.587 39.2426 111.4 39.2877 111.184 39.2877C111.017 39.2877 110.875 39.2426 110.762 39.1491C110.649 39.0555 110.594 38.9394 110.594 38.8008C110.594 38.6524 110.642 38.5266 110.742 38.4267C110.842 38.3267 111 38.2557 111.22 38.217L112.255 38.0429V38.2589C112.255 38.4492 112.21 38.6234 112.12 38.7782V38.7814Z" fill="#F5E0B3"/>
<path d="M115.077 39.2137C114.938 39.2137 114.825 39.1879 114.741 39.1395C114.658 39.0911 114.596 39.0234 114.561 38.9395C114.525 38.8557 114.506 38.7557 114.506 38.6428V36.8594H115.274V36.295H114.506V35.5081H113.916V35.7886C113.916 35.9402 113.871 36.0628 113.784 36.1563C113.693 36.2498 113.574 36.295 113.422 36.295H113.297V36.8594H113.919V38.6589C113.919 39.004 114.009 39.2749 114.19 39.4652C114.371 39.6555 114.625 39.749 114.961 39.749C115.006 39.749 115.064 39.749 115.132 39.7393C115.199 39.7329 115.261 39.7232 115.316 39.7103V39.1911C115.277 39.1943 115.235 39.2008 115.193 39.204C115.148 39.2072 115.112 39.2104 115.083 39.2104L115.077 39.2137Z" fill="#F5E0B3"/>
<path d="M118.873 37.2495C118.799 37.0528 118.692 36.8786 118.557 36.7238C118.418 36.569 118.254 36.4465 118.057 36.3562C117.86 36.2659 117.634 36.2207 117.383 36.2207C117.07 36.2207 116.786 36.2981 116.535 36.4529C116.283 36.6077 116.083 36.8173 115.938 37.085C115.793 37.3527 115.719 37.6559 115.719 37.9977C115.719 38.3396 115.793 38.6427 115.941 38.9136C116.09 39.1845 116.293 39.4006 116.551 39.5587C116.809 39.7167 117.102 39.7941 117.431 39.7941C117.667 39.7941 117.883 39.7554 118.076 39.6812C118.27 39.6038 118.434 39.5038 118.576 39.3748C118.718 39.2458 118.821 39.1039 118.889 38.9459L118.395 38.6911C118.299 38.8556 118.173 38.991 118.015 39.0975C117.857 39.2039 117.667 39.2555 117.438 39.2555C117.231 39.2555 117.038 39.2039 116.864 39.1007C116.689 38.9975 116.554 38.8524 116.457 38.6621C116.386 38.5202 116.344 38.3589 116.338 38.1848H118.953C118.963 38.1332 118.97 38.0816 118.976 38.0235C118.982 37.9655 118.986 37.9139 118.986 37.8687C118.986 37.6559 118.95 37.4527 118.876 37.2559L118.873 37.2495ZM116.835 36.898C116.999 36.798 117.18 36.7464 117.38 36.7464C117.58 36.7464 117.757 36.798 117.912 36.898C118.067 36.9979 118.186 37.1366 118.266 37.3108C118.318 37.4204 118.341 37.543 118.344 37.672H116.351C116.367 37.5494 116.399 37.4366 116.451 37.3334C116.541 37.1463 116.67 37.0012 116.835 36.898Z" fill="#F5E0B3"/>
</svg>
