<svg width="213" height="65" viewBox="0 0 213 65" fill="none" xmlns="http://www.w3.org/2000/svg">
<path d="M50.9727 41.225L53.5386 38.4497C56.679 43.5815 62.7019 47.1942 67.8386 47.1942C71.87 47.1942 75.0154 45.4122 75.0154 41.483C75.0154 33.5223 52.8082 28.2347 52.8082 18.7549C52.8082 12.9414 58.8311 9.95679 64.7468 9.95679C69.4064 9.90323 74.4895 11.0572 77.3183 13.516V21.5302L76.4809 21.5838C75.8528 14.1976 71.4026 10.95 64.7468 10.95C60.6082 10.95 56.2603 12.8343 56.2603 16.5006C56.2603 24.7242 78.258 29.7489 78.0974 38.4448C77.9951 45.1493 71.4464 48.6062 64.479 48.6062C58.9285 48.6062 54.1082 45.9332 50.9678 41.2201L50.9727 41.225Z" fill="#BB1D1D"/>
<path d="M81.2914 33.9996C81.2914 26.6135 86.2138 18.8135 95.8007 18.8135C105.388 18.8135 110.047 26.5648 110.047 33.8974C110.047 41.23 105.334 48.5626 95.8007 48.5626C86.2674 48.5626 81.2914 41.3371 81.2914 34.0045V33.9996ZM105.539 33.8438C105.539 26.7742 102.237 19.3345 95.6936 19.3345C89.1498 19.3345 85.7951 26.7693 85.7951 33.8438C85.7951 40.9184 89.0962 47.9832 95.6936 47.9832C102.291 47.9832 105.539 40.9135 105.539 33.8438Z" fill="#BB1D1D"/>
<path d="M130.94 47.7203C132.459 44.4727 132.303 43.2166 132.303 39.5503V25.9855C132.303 22.5285 131.358 21.063 129.946 21.063C126.908 21.063 120.15 28.2398 118.164 37.4566V39.5503C118.164 43.2166 118.164 44.4727 119.527 47.7203H112.613C114.132 44.4727 113.976 43.2166 113.976 39.5503V28.2885C113.976 27.0859 114.239 24.3593 111.883 21.584C114.084 21.0581 116.333 20.2742 118.169 19.281V34.6765C121.309 25.4061 127.439 18.8087 131.733 18.8087C134.246 18.8087 136.5 21.1117 136.5 24.9874V39.5454C136.5 43.2117 136.5 44.4679 137.863 47.7154H130.949L130.94 47.7203Z" fill="#BB1D1D"/>
<path d="M140.21 33.7368C140.21 26.0878 145.03 18.8087 153.249 18.76C158.746 18.76 163.303 21.5353 162.885 26.1462C162.729 28.084 161.156 29.7054 159.325 29.7054C158.279 29.7054 157.125 29.1308 156.131 27.714C157.388 26.7694 157.962 25.2016 157.962 23.7361C157.962 21.6424 156.808 19.7046 153.196 19.7046C147.173 19.7046 144.397 25.5181 144.397 31.6432C144.397 38.6106 147.07 45.9919 153.458 45.9919C158.279 45.9919 161.945 42.3256 162.831 37.9241L163.143 38.2893C162.359 44.6286 157.173 48.5042 152.197 48.5042C145.809 48.5042 140.205 43.2166 140.205 33.7368H140.21Z" fill="#BB1D1D"/>
<path d="M212.869 56.2019C212.869 60.1311 208.365 65 200.77 65C189.927 65 183.748 57.8768 183.748 44.682V25.4596C183.748 22.1097 182.857 20.6929 181.547 20.6929C178.407 20.6929 172.696 28.8094 170.548 37.033V39.5453C170.548 43.2116 170.548 44.4678 171.912 47.7154H164.998C166.517 44.4678 166.361 43.2116 166.361 39.5453V9.00749C166.361 7.80487 166.624 5.07828 164.267 2.303C166.468 1.78202 168.722 0.993258 170.553 0V35.0464C172.491 28.6584 177.832 18.8086 183.592 18.8086C186.212 18.8086 187.94 21.0629 187.94 24.4663V45.1543C187.94 61.0757 195.375 64.3232 200.351 64.3232C206.267 64.3232 209.203 57.4094 209.203 51.7517C211.715 52.4869 212.869 54.2154 212.869 56.2019Z" fill="#BB1D1D"/>
<path d="M193.622 47.8223C195.141 44.5747 194.985 43.3185 194.985 39.6522V28.2882C194.985 27.0856 195.248 24.359 192.892 21.5837C195.093 21.0578 197.342 20.2739 199.178 19.2807V39.6522C199.178 43.3185 199.178 44.5747 200.541 47.8223H193.627H193.622ZM193.676 13.3601C193.729 11.7874 195.141 10.429 196.714 10.429C198.389 10.429 199.645 11.7923 199.645 13.3601C199.591 14.9863 198.233 16.3447 196.66 16.3447C195.088 16.3447 193.676 14.9814 193.676 13.3601Z" fill="#BB1D1D"/>
<path d="M57.0539 57.5358C57.0539 57.862 56.9809 58.1493 56.8397 58.4025C56.6985 58.6557 56.4989 58.8504 56.2457 58.9916C55.9925 59.1328 55.7004 59.201 55.3693 59.201C55.0382 59.201 54.7461 59.1328 54.4929 58.9916C54.2397 58.8504 54.0449 58.6557 53.8989 58.4025C53.7528 58.1493 53.6846 57.862 53.6846 57.5358V52.8276H52.7352V57.5553C52.7352 58.0422 52.8472 58.4707 53.0663 58.8504C53.2854 59.2302 53.597 59.5272 53.9963 59.7463C54.3955 59.9654 54.8532 60.0725 55.3693 60.0725C55.8854 60.0725 56.3528 59.9654 56.7472 59.7463C57.1416 59.5272 57.4483 59.2302 57.6723 58.8504C57.8914 58.4707 58.0034 58.0373 58.0034 57.5553V52.8276H57.0539V57.5358Z" fill="#BB1D1D"/>
<path d="M62.5802 54.931C62.288 54.7654 61.9569 54.6827 61.5869 54.6827C61.2169 54.6827 60.8712 54.7752 60.5888 54.9553C60.394 55.0819 60.2382 55.2426 60.1165 55.4373V54.7995H59.2449V59.9606H60.136V56.9078C60.136 56.6254 60.1895 56.3868 60.2966 56.1872C60.4037 55.9875 60.5547 55.8317 60.7397 55.7197C60.9296 55.6078 61.1438 55.5542 61.3873 55.5542C61.6307 55.5542 61.845 55.6078 62.0348 55.7197C62.2247 55.8317 62.3659 55.9875 62.4682 56.1823C62.5704 56.3819 62.6191 56.6205 62.6191 56.9078V59.9606H63.5199V56.6205C63.5199 56.2505 63.4371 55.9194 63.2667 55.6272C63.0963 55.3351 62.8674 55.1063 62.5753 54.9358L62.5802 54.931Z" fill="#BB1D1D"/>
<path d="M65.4966 52.8228H64.6056V53.9719H65.4966V52.8228Z" fill="#BB1D1D"/>
<path d="M65.4966 54.7947H64.6056V59.9558H65.4966V54.7947Z" fill="#BB1D1D"/>
<path d="M68.9633 59.2012C68.7539 59.2012 68.5835 59.1622 68.4569 59.0892C68.3303 59.0161 68.2378 58.9139 68.1842 58.7873C68.1307 58.6607 68.1015 58.5098 68.1015 58.3394V55.6468H69.2603V54.7948H68.1015V53.6068H67.2105V54.0304C67.2105 54.2592 67.1423 54.4442 67.0108 54.5854C66.8745 54.7266 66.6944 54.7948 66.4655 54.7948H66.2756V55.6468H67.2153V58.3637C67.2153 58.8847 67.3517 59.2937 67.6243 59.5809C67.897 59.8682 68.2816 60.0094 68.788 60.0094C68.8562 60.0094 68.9438 60.0094 69.046 59.9948C69.1483 59.9851 69.2408 59.9704 69.3236 59.951V59.1671C69.2652 59.1719 69.2019 59.1817 69.1386 59.1865C69.0704 59.1914 69.0168 59.1963 68.973 59.1963L68.9633 59.2012Z" fill="#BB1D1D"/>
<path d="M71.1738 54.7947H70.2828V59.9558H71.1738V54.7947Z" fill="#BB1D1D"/>
<path d="M71.1738 52.8228H70.2828V53.9719H71.1738V52.8228Z" fill="#BB1D1D"/>
<path d="M75.697 54.931C75.4049 54.7654 75.0738 54.6827 74.7037 54.6827C74.3337 54.6827 73.988 54.7752 73.7056 54.9553C73.5109 55.0819 73.355 55.2426 73.2333 55.4373V54.7995H72.3618V59.9606H73.2528V56.9078C73.2528 56.6254 73.3064 56.3868 73.4135 56.1872C73.5206 55.9875 73.6715 55.8317 73.8565 55.7197C74.0464 55.6078 74.2607 55.5542 74.5041 55.5542C74.7476 55.5542 74.9618 55.6078 75.1517 55.7197C75.3416 55.8317 75.4828 55.9875 75.585 56.1823C75.6873 56.3819 75.7359 56.6205 75.7359 56.9078V59.9606H76.6367V56.6205C76.6367 56.2505 76.5539 55.9194 76.3835 55.6272C76.2131 55.3351 75.9843 55.1063 75.6921 54.9358L75.697 54.931Z" fill="#BB1D1D"/>
<path d="M81.7831 55.5153C81.603 55.2865 81.3888 55.0966 81.1258 54.9505C80.7948 54.7704 80.4296 54.6779 80.0303 54.6779C79.5434 54.6779 79.1101 54.7899 78.7303 55.0187C78.3506 55.2475 78.0536 55.5543 77.8345 55.9438C77.6154 56.3333 77.5082 56.7715 77.5082 57.2535C77.5082 57.7355 77.6154 58.1689 77.8345 58.5584C78.0536 58.9528 78.3506 59.2595 78.7352 59.4884C79.1199 59.7172 79.5532 59.8292 80.0352 59.8292C80.4393 59.8292 80.8045 59.7367 81.1404 59.5517C81.3839 59.4153 81.5884 59.2352 81.7491 59.0112V59.7318C81.7491 60.0434 81.6809 60.3112 81.5397 60.5303C81.3985 60.7494 81.2086 60.9149 80.97 61.0269C80.7315 61.1389 80.4637 61.1925 80.1715 61.1925C79.7869 61.1925 79.4704 61.1097 79.2172 60.9393C78.964 60.7689 78.7936 60.5644 78.706 60.3209L77.8734 60.7056C77.9903 60.9734 78.1558 61.2071 78.3749 61.4116C78.594 61.6112 78.8618 61.7719 79.1685 61.8839C79.4753 61.9958 79.8161 62.0543 80.1764 62.0543C80.6536 62.0543 81.082 61.952 81.4569 61.7524C81.8318 61.5528 82.124 61.2752 82.3333 60.9247C82.5427 60.5741 82.6498 60.1749 82.6498 59.7269V54.785H81.7783V55.5056L81.7831 55.5153ZM81.5348 58.1202C81.3888 58.3782 81.194 58.5827 80.9457 58.7385C80.6974 58.8943 80.4247 58.9674 80.118 58.9674C79.8112 58.9674 79.5142 58.8895 79.261 58.7385C79.0079 58.5876 78.8131 58.3782 78.667 58.1202C78.521 57.8621 78.4528 57.5749 78.4528 57.2535C78.4528 56.9322 78.5258 56.6449 78.667 56.3869C78.8082 56.1288 79.0079 55.9243 79.2659 55.7685C79.5191 55.6176 79.8064 55.5397 80.118 55.5397C80.4296 55.5397 80.7022 55.6176 80.9457 55.7685C81.1891 55.9194 81.3888 56.1288 81.5348 56.3917C81.6809 56.6546 81.7539 56.9419 81.7539 57.2535C81.7539 57.5651 81.6809 57.8621 81.5348 58.1202Z" fill="#BB1D1D"/>
<path d="M87.3678 53.9329C87.7524 53.6992 88.1955 53.5775 88.6921 53.5775C89.1888 53.5775 89.6026 53.6992 89.958 53.9475C90.3086 54.191 90.5667 54.5123 90.7322 54.9116L91.594 54.5172C91.4772 54.2056 91.2873 53.9086 91.0146 53.6359C90.7419 53.3633 90.4109 53.1393 90.0165 52.964C89.6221 52.7936 89.1839 52.706 88.6921 52.706C88.2004 52.706 87.7232 52.7985 87.2948 52.9786C86.8663 53.1588 86.4963 53.4168 86.1846 53.7479C85.873 54.079 85.6296 54.4685 85.4592 54.9165C85.2888 55.3644 85.2011 55.8562 85.2011 56.3917C85.2011 56.9273 85.2888 57.4093 85.4592 57.8573C85.6296 58.3052 85.8779 58.6947 86.1895 59.0258C86.5011 59.3569 86.876 59.615 87.2996 59.7951C87.7232 59.9753 88.1906 60.0678 88.6921 60.0678C89.1936 60.0678 89.627 59.9801 90.0165 59.8097C90.4109 59.6393 90.7419 59.4153 91.0146 59.1378C91.2873 58.8651 91.4772 58.5681 91.594 58.2565L90.7322 57.8621C90.5667 58.2565 90.3086 58.5779 89.958 58.8262C89.6075 59.0696 89.1839 59.1962 88.6921 59.1962C88.2004 59.1962 87.7524 59.0794 87.3678 58.8408C86.9831 58.6071 86.6813 58.276 86.4622 57.8524C86.2431 57.4337 86.136 56.9419 86.136 56.3869C86.136 55.8318 86.2431 55.3352 86.4622 54.9116C86.6813 54.488 86.9783 54.1618 87.3678 53.9232V53.9329Z" fill="#BB1D1D"/>
<path d="M95.8494 57.8477C95.8494 58.1301 95.7959 58.3686 95.6936 58.5731C95.5865 58.7776 95.4404 58.9334 95.2554 59.0406C95.0655 59.1477 94.8513 59.2012 94.6079 59.2012C94.3644 59.2012 94.1502 59.1477 93.9603 59.0406C93.7704 58.9334 93.6243 58.7825 93.5221 58.5926C93.415 58.4027 93.3663 58.1788 93.3663 57.9207V54.79H92.4753V58.0181C92.4753 58.4222 92.558 58.7776 92.7187 59.0844C92.8794 59.396 93.1131 59.6346 93.4101 59.805C93.7071 59.9754 94.0382 60.063 94.4082 60.063C94.7783 60.063 95.1191 59.9705 95.4112 59.7904C95.6109 59.6686 95.7667 59.508 95.8835 59.3132V59.9462H96.755V54.7851H95.8543V57.8379L95.8494 57.8477Z" fill="#BB1D1D"/>
<path d="M98.8243 52.706H97.9333V59.9558H98.8243V52.706Z" fill="#BB1D1D"/>
<path d="M102.291 59.2012C102.082 59.2012 101.911 59.1622 101.785 59.0892C101.658 59.0161 101.566 58.9139 101.512 58.7873C101.458 58.6607 101.429 58.5098 101.429 58.3394V55.6468H102.588V54.7948H101.429V53.6068H100.538V54.0304C100.538 54.2592 100.47 54.4442 100.339 54.5854C100.202 54.7266 100.022 54.7948 99.7932 54.7948H99.6033V55.6468H100.543V58.3637C100.543 58.8847 100.679 59.2937 100.952 59.5809C101.225 59.8682 101.609 60.0094 102.116 60.0094C102.184 60.0094 102.272 60.0094 102.374 59.9948C102.476 59.9851 102.569 59.9704 102.651 59.951V59.1671C102.593 59.1719 102.53 59.1817 102.466 59.1865C102.398 59.1914 102.345 59.1963 102.301 59.1963L102.291 59.2012Z" fill="#BB1D1D"/>
<path d="M106.887 57.8477C106.887 58.1301 106.834 58.3686 106.731 58.5731C106.624 58.7776 106.478 58.9334 106.293 59.0406C106.103 59.1477 105.889 59.2012 105.646 59.2012C105.402 59.2012 105.188 59.1477 104.998 59.0406C104.808 58.9334 104.662 58.7825 104.56 58.5926C104.453 58.4027 104.404 58.1788 104.404 57.9207V54.79H103.513V58.0181C103.513 58.4222 103.596 58.7776 103.757 59.0844C103.917 59.396 104.151 59.6346 104.448 59.805C104.745 59.9754 105.076 60.063 105.446 60.063C105.816 60.063 106.157 59.9705 106.449 59.7904C106.649 59.6686 106.805 59.508 106.921 59.3132V59.9462H107.793V54.7851H106.892V57.8379L106.887 57.8477Z" fill="#BB1D1D"/>
<path d="M110.305 54.9552C110.115 55.0672 109.96 55.223 109.848 55.4178V54.7945H108.976V59.9556H109.867V56.8833C109.867 56.4694 109.979 56.1481 110.203 55.9193C110.427 55.6953 110.719 55.5784 111.084 55.5784H111.532V54.7361H111.216C110.86 54.7361 110.554 54.8091 110.305 54.9503V54.9552Z" fill="#BB1D1D"/>
<path d="M116.206 55.4422C115.997 55.2085 115.749 55.0235 115.452 54.8872C115.155 54.7508 114.814 54.6827 114.434 54.6827C113.962 54.6827 113.533 54.7995 113.154 55.0332C112.774 55.2669 112.472 55.5834 112.253 55.9875C112.034 56.3917 111.922 56.8493 111.922 57.3654C111.922 57.8815 112.034 58.3392 112.258 58.7482C112.482 59.1572 112.788 59.4834 113.178 59.722C113.567 59.9606 114.01 60.0774 114.507 60.0774C114.863 60.0774 115.189 60.019 115.481 59.907C115.773 59.7902 116.021 59.6392 116.236 59.4445C116.45 59.2497 116.606 59.0355 116.708 58.7969L115.963 58.4123C115.817 58.6606 115.627 58.8651 115.388 59.0257C115.15 59.1864 114.863 59.2643 114.517 59.2643C114.205 59.2643 113.913 59.1864 113.65 59.0306C113.387 58.8748 113.183 58.6557 113.037 58.3684C112.93 58.1542 112.866 57.9108 112.857 57.6478H116.805C116.82 57.5699 116.83 57.492 116.839 57.4044C116.849 57.3167 116.854 57.2388 116.854 57.1707C116.854 56.8493 116.8 56.5426 116.688 56.2456C116.576 55.9486 116.416 55.6857 116.211 55.452L116.206 55.4422ZM113.606 55.7051C113.855 55.5542 114.127 55.4763 114.429 55.4763C114.731 55.4763 114.999 55.5542 115.233 55.7051C115.466 55.8561 115.646 56.0654 115.768 56.3284C115.846 56.4939 115.88 56.6789 115.885 56.8737H112.876C112.9 56.6887 112.949 56.5182 113.027 56.3624C113.163 56.08 113.358 55.8609 113.606 55.7051Z" fill="#BB1D1D"/>
<path d="M120.213 57.0831L119.371 56.8348C119.269 56.8007 119.162 56.7618 119.055 56.7131C118.948 56.6644 118.855 56.5962 118.777 56.5037C118.699 56.4112 118.66 56.2895 118.66 56.1434C118.66 55.9438 118.738 55.7831 118.889 55.6517C119.04 55.5202 119.249 55.4569 119.512 55.4569C119.8 55.4569 120.058 55.5348 120.287 55.6906C120.515 55.8464 120.691 56.0606 120.803 56.3284L121.528 55.9925C121.377 55.5786 121.119 55.2573 120.759 55.0236C120.398 54.7947 119.989 54.6779 119.537 54.6779C119.196 54.6779 118.894 54.7412 118.621 54.8678C118.349 54.9944 118.134 55.1745 117.979 55.3985C117.823 55.6273 117.745 55.8902 117.745 56.197C117.745 56.5281 117.852 56.8202 118.066 57.0685C118.281 57.3168 118.621 57.5067 119.084 57.643L119.858 57.8621C119.96 57.8865 120.072 57.9254 120.194 57.9839C120.316 58.0374 120.418 58.1105 120.506 58.203C120.593 58.2955 120.637 58.4172 120.637 58.573C120.637 58.7921 120.545 58.9674 120.36 59.0988C120.175 59.2352 119.941 59.2985 119.658 59.2985C119.347 59.2985 119.06 59.2108 118.806 59.0307C118.553 58.8505 118.349 58.6071 118.203 58.3052L117.492 58.6509C117.652 59.0842 117.92 59.4299 118.305 59.6831C118.689 59.9363 119.137 60.0678 119.654 60.0678C120.024 60.0678 120.35 60.0045 120.632 59.8779C120.915 59.7513 121.134 59.5711 121.294 59.3423C121.455 59.1134 121.533 58.8554 121.533 58.5681C121.533 58.2127 121.416 57.906 121.182 57.6479C120.949 57.3947 120.622 57.2048 120.199 57.0831H120.213Z" fill="#BB1D1D"/>
<path d="M127.785 55.0284C127.381 54.7947 126.933 54.6779 126.436 54.6779C125.939 54.6779 125.477 54.7947 125.078 55.0333C124.673 55.267 124.357 55.5884 124.123 55.9925C123.889 56.3966 123.773 56.8543 123.773 57.3704C123.773 57.8865 123.889 58.349 124.128 58.758C124.362 59.167 124.683 59.4884 125.087 59.7221C125.491 59.9558 125.939 60.0726 126.436 60.0726C126.933 60.0726 127.361 59.9558 127.76 59.7221C128.16 59.4884 128.481 59.1719 128.724 58.7629C128.968 58.3588 129.089 57.8914 129.089 57.3704C129.089 56.8494 128.973 56.382 128.739 55.9827C128.505 55.5835 128.189 55.2621 127.785 55.0284ZM127.916 58.3052C127.765 58.5876 127.561 58.8067 127.303 58.9674C127.045 59.1281 126.757 59.206 126.436 59.206C126.115 59.206 125.818 59.1281 125.56 58.9674C125.301 58.8067 125.097 58.5876 124.941 58.3052C124.785 58.0228 124.712 57.7112 124.712 57.3655C124.712 57.0198 124.79 56.7033 124.941 56.4307C125.092 56.158 125.301 55.9438 125.56 55.7782C125.818 55.6127 126.11 55.5348 126.436 55.5348C126.762 55.5348 127.045 55.6176 127.303 55.7782C127.561 55.9389 127.765 56.158 127.916 56.4307C128.067 56.7033 128.14 57.0149 128.14 57.3655C128.14 57.7161 128.067 58.0228 127.916 58.3052Z" fill="#BB1D1D"/>
<path d="M133.394 54.931C133.102 54.7654 132.77 54.6827 132.4 54.6827C132.03 54.6827 131.685 54.7752 131.402 54.9553C131.207 55.0819 131.052 55.2426 130.93 55.4373V54.7995H130.058V59.9606H130.949V56.9078C130.949 56.6254 131.003 56.3868 131.11 56.1872C131.217 55.9875 131.368 55.8317 131.553 55.7197C131.743 55.6078 131.957 55.5542 132.201 55.5542C132.444 55.5542 132.658 55.6078 132.848 55.7197C133.038 55.8317 133.179 55.9875 133.282 56.1823C133.384 56.3819 133.433 56.6205 133.433 56.9078V59.9606H134.333V56.6205C134.333 56.2505 134.251 55.9194 134.08 55.6272C133.91 55.3351 133.681 55.1063 133.389 54.9358L133.394 54.931Z" fill="#BB1D1D"/>
<path d="M138.832 58.831L137.264 54.7947H136.295L138.35 59.9655L138.194 60.3404C138.053 60.6569 137.907 60.8857 137.751 61.0172C137.595 61.1486 137.367 61.2119 137.065 61.2119C136.963 61.2119 136.86 61.2022 136.753 61.1876C136.646 61.173 136.558 61.1584 136.49 61.1438V61.9374C136.592 61.9812 136.7 62.0153 136.816 62.0348C136.933 62.0543 137.045 62.064 137.162 62.064C137.493 62.064 137.781 61.9958 138.024 61.8644C138.267 61.728 138.472 61.5479 138.642 61.3239C138.813 61.0951 138.949 60.8468 139.056 60.5741L141.384 54.7996H140.395L138.832 58.8359V58.831Z" fill="#BB1D1D"/>
<path d="M145.688 55.0284C145.284 54.7947 144.836 54.6779 144.339 54.6779C143.842 54.6779 143.38 54.7947 142.981 55.0333C142.576 55.267 142.26 55.5884 142.026 55.9925C141.792 56.3966 141.676 56.8543 141.676 57.3704C141.676 57.8865 141.792 58.349 142.031 58.758C142.265 59.167 142.586 59.4884 142.99 59.7221C143.394 59.9558 143.842 60.0726 144.339 60.0726C144.836 60.0726 145.264 59.9558 145.663 59.7221C146.063 59.4884 146.384 59.1719 146.627 58.7629C146.871 58.3588 146.992 57.8914 146.992 57.3704C146.992 56.8494 146.876 56.382 146.642 55.9827C146.408 55.5835 146.092 55.2621 145.688 55.0284ZM145.819 58.3052C145.668 58.5876 145.464 58.8067 145.206 58.9674C144.948 59.1281 144.66 59.206 144.339 59.206C144.018 59.206 143.721 59.1281 143.463 58.9674C143.204 58.8067 143 58.5876 142.844 58.3052C142.688 58.0228 142.615 57.7112 142.615 57.3655C142.615 57.0198 142.693 56.7033 142.844 56.4307C142.995 56.158 143.204 55.9438 143.463 55.7782C143.721 55.6127 144.013 55.5348 144.339 55.5348C144.665 55.5348 144.948 55.6176 145.206 55.7782C145.464 55.9389 145.668 56.158 145.819 56.4307C145.97 56.7033 146.043 57.0149 146.043 57.3655C146.043 57.7161 145.97 58.0228 145.819 58.3052Z" fill="#BB1D1D"/>
<path d="M151.233 57.8477C151.233 58.1301 151.18 58.3686 151.078 58.5731C150.97 58.7776 150.824 58.9334 150.639 59.0406C150.449 59.1477 150.235 59.2012 149.992 59.2012C149.748 59.2012 149.534 59.1477 149.344 59.0406C149.154 58.9334 149.008 58.7825 148.906 58.5926C148.799 58.4027 148.75 58.1788 148.75 57.9207V54.79H147.859V58.0181C147.859 58.4222 147.942 58.7776 148.103 59.0844C148.263 59.396 148.497 59.6346 148.794 59.805C149.091 59.9754 149.422 60.063 149.792 60.063C150.162 60.063 150.503 59.9705 150.795 59.7904C150.995 59.6686 151.151 59.508 151.267 59.3132V59.9462H152.139V54.7851H151.238V57.8379L151.233 57.8477Z" fill="#BB1D1D"/>
<path d="M154.651 54.9552C154.461 55.0672 154.306 55.223 154.194 55.4178V54.7945H153.322V59.9556H154.213V56.8833C154.213 56.4694 154.325 56.1481 154.549 55.9193C154.773 55.6953 155.065 55.5784 155.43 55.5784H155.878V54.7361H155.562C155.206 54.7361 154.9 54.8091 154.651 54.9503V54.9552Z" fill="#BB1D1D"/>
<path d="M161.93 55.0333C161.546 54.7996 161.107 54.6779 160.625 54.6779C160.197 54.6779 159.817 54.7704 159.486 54.9505C159.213 55.0966 158.994 55.2914 158.814 55.5251V54.7947H157.943V61.8693H158.834V59.2303C159.004 59.464 159.218 59.649 159.481 59.7902C159.822 59.9753 160.202 60.0678 160.616 60.0678C161.107 60.0678 161.546 59.9509 161.93 59.7123C162.315 59.4786 162.622 59.1524 162.846 58.7434C163.07 58.3344 163.182 57.8767 163.182 57.3752C163.182 56.8737 163.07 56.3966 162.846 55.9925C162.622 55.5884 162.32 55.267 161.93 55.0284V55.0333ZM162.018 58.3101C161.872 58.5876 161.672 58.8067 161.419 58.9674C161.166 59.1281 160.874 59.206 160.548 59.206C160.221 59.206 159.929 59.1281 159.671 58.9674C159.413 58.8067 159.209 58.5876 159.058 58.3101C158.907 58.0326 158.834 57.7209 158.834 57.3752C158.834 57.0296 158.907 56.7082 159.058 56.4307C159.209 56.1532 159.413 55.9341 159.671 55.7734C159.929 55.6127 160.221 55.5348 160.548 55.5348C160.874 55.5348 161.166 55.6176 161.419 55.7782C161.672 55.9389 161.872 56.158 162.018 56.4307C162.159 56.7033 162.232 57.0149 162.232 57.3752C162.232 57.7355 162.159 58.0326 162.018 58.3101Z" fill="#BB1D1D"/>
<path d="M165.046 52.706H164.155V59.9558H165.046V52.706Z" fill="#BB1D1D"/>
<path d="M169.404 54.9066C169.102 54.7557 168.757 54.6827 168.362 54.6827C168.055 54.6827 167.763 54.7362 167.481 54.8433C167.199 54.9505 166.955 55.1014 166.746 55.2864C166.536 55.4763 166.381 55.6857 166.288 55.9242L167.062 56.3284C167.169 56.08 167.34 55.8804 167.564 55.7295C167.793 55.5785 168.051 55.5055 168.343 55.5055C168.679 55.5055 168.956 55.5932 169.161 55.7684C169.365 55.9437 169.472 56.1726 169.472 56.4549V56.6887L167.71 56.9808C167.325 57.0441 167.009 57.1512 166.755 57.307C166.502 57.4579 166.317 57.6478 166.2 57.8669C166.084 58.086 166.025 58.3344 166.025 58.607C166.025 58.8797 166.098 59.1475 166.244 59.3666C166.39 59.5857 166.595 59.7609 166.853 59.8827C167.111 60.0093 167.408 60.0677 167.749 60.0677C168.041 60.0677 168.313 60.0239 168.562 59.9314C168.81 59.8437 169.029 59.722 169.214 59.5662C169.321 59.4785 169.409 59.3812 169.492 59.274V59.9508H170.363V56.4452C170.363 56.0946 170.281 55.7879 170.11 55.5201C169.94 55.2572 169.706 55.0478 169.409 54.8969L169.404 54.9066ZM169.268 58.5486C169.131 58.7823 168.942 58.9722 168.703 59.1085C168.464 59.2448 168.182 59.313 167.856 59.313C167.603 59.313 167.388 59.2448 167.218 59.1036C167.048 58.9624 166.965 58.7872 166.965 58.5778C166.965 58.3538 167.038 58.1639 167.189 58.013C167.34 57.8621 167.578 57.7549 167.909 57.6965L169.472 57.4336V57.7598C169.472 58.0471 169.404 58.31 169.268 58.5437V58.5486Z" fill="#BB1D1D"/>
<path d="M173.733 59.2012C173.523 59.2012 173.353 59.1622 173.226 59.0892C173.1 59.0161 173.007 58.9139 172.954 58.7873C172.9 58.6607 172.871 58.5098 172.871 58.3394V55.6468H174.03V54.7948H172.871V53.6068H171.98V54.0304C171.98 54.2592 171.912 54.4442 171.78 54.5854C171.644 54.7266 171.464 54.7948 171.235 54.7948H171.045V55.6468H171.985V58.3637C171.985 58.8847 172.121 59.2937 172.394 59.5809C172.666 59.8682 173.051 60.0094 173.557 60.0094C173.625 60.0094 173.713 60.0094 173.815 59.9948C173.918 59.9851 174.01 59.9704 174.093 59.951V59.1671C174.034 59.1719 173.971 59.1817 173.908 59.1865C173.84 59.1914 173.786 59.1963 173.742 59.1963L173.733 59.2012Z" fill="#BB1D1D"/>
<path d="M179.463 56.2358C179.351 55.9388 179.191 55.6759 178.986 55.4422C178.777 55.2085 178.528 55.0235 178.231 54.8872C177.934 54.7508 177.594 54.6827 177.214 54.6827C176.742 54.6827 176.313 54.7995 175.933 55.0332C175.554 55.2669 175.252 55.5834 175.033 55.9875C174.813 56.3917 174.701 56.8493 174.701 57.3654C174.701 57.8815 174.813 58.3392 175.037 58.7482C175.261 59.1572 175.568 59.4834 175.958 59.722C176.347 59.9606 176.79 60.0774 177.287 60.0774C177.642 60.0774 177.969 60.019 178.261 59.907C178.553 59.7902 178.801 59.6392 179.015 59.4445C179.23 59.2497 179.385 59.0355 179.488 58.7969L178.743 58.4123C178.597 58.6606 178.407 58.8651 178.168 59.0257C177.93 59.1864 177.642 59.2643 177.297 59.2643C176.985 59.2643 176.693 59.1864 176.43 59.0306C176.167 58.8748 175.963 58.6557 175.816 58.3684C175.709 58.1542 175.646 57.9108 175.636 57.6478H179.585C179.6 57.5699 179.609 57.492 179.619 57.4044C179.629 57.3167 179.634 57.2388 179.634 57.1707C179.634 56.8493 179.58 56.5426 179.468 56.2456L179.463 56.2358ZM176.386 55.7051C176.634 55.5542 176.907 55.4763 177.209 55.4763C177.511 55.4763 177.779 55.5542 178.012 55.7051C178.246 55.8561 178.426 56.0654 178.548 56.3284C178.626 56.4939 178.66 56.6789 178.665 56.8737H175.656C175.68 56.6887 175.729 56.5182 175.807 56.3624C175.943 56.08 176.138 55.8609 176.386 55.7051Z" fill="#BB1D1D"/>
<path d="M22.9715 1.17319C10.3075 1.17319 0 11.4807 0 24.1496V59.347C0 59.6829 0.272659 59.9556 0.608614 59.9556H45.3393C45.6753 59.9556 45.9479 59.6829 45.9479 59.347V24.1496C45.9479 11.4807 35.6404 1.17806 22.9764 1.17806L22.9715 1.17319ZM34.8322 53.9863C34.9004 54.5073 34.9831 55.0039 35.0757 55.4762C35.0757 55.4908 35.0757 55.5103 35.0854 55.5298C35.3288 56.7519 35.621 57.8084 35.9472 58.7432H22.5674C22.9667 54.7799 24.2131 50.7193 26.2629 46.7608C26.4187 46.4638 26.297 46.0938 26 45.938C25.6981 45.7822 25.333 45.9039 25.1772 46.2009C23.0397 50.3395 21.7446 54.5852 21.3405 58.7432H15.006L16.6371 46.2301C16.6468 46.1863 16.6371 46.1474 16.6371 46.0987C16.9584 44.9301 17.0607 43.6837 17.124 42.4616C19.1202 44.3361 21.4281 46.0305 23.0007 46.0305C24.5734 46.0305 26.5404 44.7354 30.085 41.4342C31.1951 42.9485 32.7142 43.9417 34.5498 44.2095C34.803 44.2436 35.0513 44.1219 35.173 43.8979C35.2948 43.6739 35.2704 43.4013 35.1 43.2065C33.5419 41.3612 32.5487 35.723 35.0659 33.2739C35.3094 33.0354 35.3142 32.6507 35.0757 32.4073C34.8419 32.1687 34.4524 32.159 34.209 32.3975C31.6139 34.9342 32.0375 39.7788 33.3082 42.5833C32.2663 42.111 31.3899 41.2833 30.7277 40.2024C30.718 40.1927 30.718 40.1829 30.7082 40.1683C29.6176 38.3571 29.121 35.8106 29.418 32.9088L29.4521 32.5874C30.0753 26.4964 30.5622 21.6811 26.7839 18.8425C24.7925 17.3526 21.1262 16.1743 17.7715 17.1189C15.2981 17.8103 13.4382 19.5436 12.406 22.129C10.3172 27.3436 11.2861 35.5283 13.5453 38.5616C14.0614 39.2627 14.9281 40.2706 15.9603 41.332C15.9506 41.517 15.9408 41.7069 15.9262 41.8968C15.8581 43.3136 15.7802 44.7695 15.3858 46.0402C14.8599 46.8533 14.3 47.5155 13.8375 48.0511C13.4528 48.499 13.1655 48.8301 13 49.1369C12.7127 49.3121 12.3963 49.4728 12.0603 49.614C7.60524 43.6545 6.10562 39.8129 6.15918 34.5691C6.21273 28.668 8.91498 22.2945 11.5491 16.8365C12.4401 15.0058 13.6037 13.511 15.0644 12.3571C16.5251 11.2032 18.2925 10.3754 20.3715 9.86908C25.3135 8.65672 31.0199 11.2421 35.6502 16.7829C40.1978 22.2264 39.5697 34.7054 38.5569 38.7466C38.182 40.2316 37.5978 41.6777 36.9697 43.2017C35.6453 46.459 34.2723 49.8331 34.8419 53.996L34.8322 53.9863ZM14.0468 49.7406C14.1052 49.5799 14.4655 49.1661 14.7528 48.835C14.8648 48.7035 14.9816 48.5672 15.1131 48.4163L13.7644 58.7384H12.5034L14.0468 49.7406ZM11.3689 58.0811C9.80112 56.5181 7.88764 54.4732 6.23708 52.3503C6.72884 52.2335 7.19625 52.1264 7.67341 52.0095C8.48165 51.8148 9.32397 51.6054 10.3854 51.3863C11.2228 51.211 11.9727 50.9627 12.6397 50.6706L11.3689 58.0762V58.0811ZM24.5734 28.6631C24.6416 28.9455 24.8899 29.1354 25.1674 29.1354C25.2161 29.1354 25.2648 29.1256 25.3135 29.1159C25.3281 29.1159 26.6232 28.7994 28.5708 28.5024C28.5172 29.3788 28.4296 30.299 28.3371 31.2728C27.67 31.341 26.6963 31.3118 25.7127 30.8444C25.406 30.6983 25.0457 30.8298 24.8948 31.1365C24.7536 31.4432 24.885 31.8035 25.1869 31.9545C25.9903 32.3342 26.8861 32.529 27.8112 32.529C27.9427 32.529 28.0839 32.5193 28.2154 32.5095L28.1861 32.7724C27.8843 35.7425 28.3517 38.3814 29.4034 40.3777C27.1296 42.5054 24.4468 44.7987 22.9813 44.7987C21.7008 44.7987 19.1787 42.8316 17.0558 40.7039C17.0169 40.6552 16.9779 40.6065 16.9292 40.5773C15.9895 39.623 15.1326 38.6492 14.5094 37.8118C12.479 35.0803 11.6075 27.3533 13.521 22.5672C14.4169 20.3178 15.9554 18.8814 18.0783 18.2826C18.8086 18.0732 19.5584 17.9856 20.2985 17.9856C22.5479 17.9856 24.7 18.823 26.0243 19.8163C28.2154 21.4571 28.712 23.9597 28.6243 27.256C26.482 27.5724 25.0798 27.9133 25.0116 27.9279C24.6854 28.0058 24.4858 28.3369 24.5637 28.6631H24.5734ZM1.21236 55.4713C1.89401 54.1616 3.20375 53.144 4.9176 52.6571C6.61685 54.8968 8.62772 57.0635 10.2831 58.7432H1.21236V55.4713ZM44.7307 58.7432H37.2375C36.9161 57.8717 36.6191 56.8882 36.3757 55.7489L39.3262 54.4683C39.6378 54.332 39.779 53.9766 39.6427 53.665C39.5112 53.3533 39.1509 53.2121 38.8393 53.3485L36.1468 54.517C36.1127 54.293 36.0738 54.0691 36.0446 53.8256C35.9277 53.0028 35.9082 52.214 35.9472 51.4447L40.5921 52.4088C42.4569 52.7691 43.9614 53.996 44.7307 55.6271V58.7481V58.7432ZM10.4876 39.9736L11.5393 38.3035C11.7243 38.0114 12.0993 37.9335 12.3865 38.1136C12.6689 38.2938 12.7566 38.6736 12.5764 38.9608L11.6172 40.4799V42.1597H13.1412V41.59C13.1412 41.2492 13.4139 40.9814 13.7547 40.9814C14.0955 40.9814 14.3682 41.2541 14.3682 41.59V42.7732C14.3682 43.114 14.0955 43.3818 13.7547 43.3818H11.0037C10.6629 43.3818 10.3903 43.1091 10.3903 42.7732V40.3047C10.3903 40.1878 10.4243 40.0758 10.4876 39.9784V39.9736ZM20.0891 31.9545C19.2225 32.3635 18.3217 32.529 17.4794 32.529C16.4375 32.529 15.4831 32.2758 14.8064 31.9545C14.5045 31.8084 14.373 31.4384 14.5191 31.1316C14.6652 30.8298 15.0303 30.6983 15.3371 30.8444C16.3839 31.3459 18.0978 31.5406 19.5633 30.8444C19.87 30.6983 20.2303 30.8298 20.3813 31.1365C20.5273 31.4432 20.3959 31.8035 20.0891 31.9545ZM13.8228 28.6826C13.5064 28.8043 13.1509 28.6387 13.0341 28.3223C12.9124 28.0058 13.0779 27.6552 13.3944 27.5335C13.4528 27.514 14.8551 27.0028 16.2378 27.1927C18.609 27.5189 20.1963 27.9084 20.2644 27.9279C20.5906 28.0058 20.7951 28.3369 20.7124 28.6631C20.6442 28.9406 20.391 29.1305 20.1135 29.1305C20.0648 29.1305 20.0161 29.1305 19.9723 29.1159C19.9528 29.1159 18.3801 28.7312 16.0723 28.4099C15.006 28.2638 13.8375 28.6777 13.8277 28.6826H13.8228ZM21.8906 26.7204C21.8906 26.2335 22.2899 25.8391 22.7768 25.8391C23.2637 25.8391 23.6629 26.2335 23.6629 26.7204C23.6629 27.2073 23.2685 27.6065 22.7768 27.6065C22.285 27.6065 21.8906 27.2073 21.8906 26.7204ZM23.2637 39.2773C24.2715 39.2773 25.1285 38.4545 25.1382 38.4496C25.3768 38.211 25.7614 38.2159 26.0049 38.4593C26.2386 38.6979 26.2337 39.0826 26.0049 39.3211C25.9562 39.3747 24.7876 40.5091 23.2734 40.5091C21.5109 40.5091 20.1963 39.399 20.1427 39.3552C19.8846 39.1361 19.8554 38.7515 20.0697 38.4886C20.2888 38.2354 20.6783 38.2013 20.9363 38.4204C20.9607 38.4399 21.9831 39.2822 23.2734 39.2822L23.2637 39.2773Z" fill="#BB1D1D"/>
</svg>
